<svg width="25" height="25" viewBox="0 0 25 25" fill="none" xmlns="http://www.w3.org/2000/svg">
<path d="M21.2902 19.5V20.5H3.29016V19.5L5.29016 17.5V11.5C5.29016 8.4 7.32016 5.67 10.2902 4.79V4.5C10.2902 3.96957 10.5009 3.46086 10.8759 3.08579C11.251 2.71071 11.7597 2.5 12.2902 2.5C12.8206 2.5 13.3293 2.71071 13.7044 3.08579C14.0794 3.46086 14.2902 3.96957 14.2902 4.5V4.79C17.2602 5.67 19.2902 8.4 19.2902 11.5V17.5L21.2902 19.5ZM14.2902 21.5C14.2902 22.0304 14.0794 22.5391 13.7044 22.9142C13.3293 23.2893 12.8206 23.5 12.2902 23.5C11.7597 23.5 11.251 23.2893 10.8759 22.9142C10.5009 22.5391 10.2902 22.0304 10.2902 21.5" fill="black"/>
</svg>
