<svg width="207" height="76" viewBox="0 0 207 76" fill="none" xmlns="http://www.w3.org/2000/svg">
<rect x="5.02881" y="75.166" width="25.2764" height="55.8463" rx="12.6382" transform="rotate(-89.3462 5.02881 75.166)" fill="#1769FF"/>
<rect y="4.23486" width="27.5262" height="70.9328" rx="13.7631" fill="#1769FF"/>
<path opacity="0.6" d="M12.175 64.8452L12.175 39.5688H55.3832C62.3631 39.5688 68.0214 45.2271 68.0214 52.207C68.0214 59.1869 62.3631 64.8452 55.3832 64.8452H12.175Z" fill="#5194FF"/>
<path opacity="0.6" d="M37.4515 39.5688H12.1751V12.6382C12.1751 5.65832 17.8334 0 24.8133 0C31.7932 0 37.4515 5.65832 37.4515 12.6382V39.5688Z" fill="#5194FF"/>
<path d="M92.5824 53V26.8182H97.3253V49.0241H108.857V53H92.5824ZM121.462 53.3835C119.493 53.3835 117.793 52.9744 116.361 52.1562C114.938 51.3295 113.842 50.1619 113.075 48.6534C112.308 47.1364 111.925 45.3509 111.925 43.2969C111.925 41.277 112.308 39.5043 113.075 37.9787C113.851 36.4446 114.933 35.2514 116.322 34.3991C117.712 33.5384 119.344 33.108 121.219 33.108C122.429 33.108 123.571 33.304 124.645 33.696C125.727 34.0795 126.682 34.6761 127.509 35.4858C128.344 36.2955 129 37.3267 129.477 38.5795C129.955 39.8239 130.193 41.3068 130.193 43.0284V44.4474H114.098V41.3281H125.757C125.749 40.4418 125.557 39.6534 125.182 38.9631C124.807 38.2642 124.283 37.7145 123.609 37.3139C122.945 36.9134 122.169 36.7131 121.283 36.7131C120.337 36.7131 119.506 36.9432 118.79 37.4034C118.074 37.8551 117.516 38.4517 117.115 39.1932C116.723 39.9261 116.523 40.7315 116.514 41.6094V44.3324C116.514 45.4744 116.723 46.4545 117.141 47.2727C117.558 48.0824 118.142 48.7045 118.892 49.1392C119.642 49.5653 120.52 49.7784 121.526 49.7784C122.199 49.7784 122.808 49.6847 123.354 49.4972C123.899 49.3011 124.372 49.0156 124.773 48.6406C125.173 48.2656 125.476 47.8011 125.68 47.2472L130.001 47.733C129.729 48.875 129.209 49.8722 128.442 50.7244C127.683 51.5682 126.712 52.2244 125.527 52.6932C124.342 53.1534 122.987 53.3835 121.462 53.3835ZM138.736 41.4943V53H134.108V33.3636H138.532V36.7003H138.762C139.213 35.6009 139.934 34.7273 140.922 34.0795C141.919 33.4318 143.151 33.108 144.617 33.108C145.972 33.108 147.152 33.3977 148.158 33.9773C149.172 34.5568 149.956 35.3963 150.51 36.4957C151.073 37.5952 151.35 38.929 151.341 40.4972V53H146.713V41.2131C146.713 39.9006 146.373 38.8736 145.691 38.1321C145.017 37.3906 144.084 37.0199 142.891 37.0199C142.081 37.0199 141.361 37.1989 140.73 37.5568C140.108 37.9062 139.618 38.4134 139.26 39.0781C138.911 39.7429 138.736 40.5483 138.736 41.4943ZM163.333 53.3452C161.79 53.3452 160.409 52.9489 159.191 52.1562C157.972 51.3636 157.009 50.2131 156.301 48.7045C155.594 47.196 155.24 45.3636 155.24 43.2074C155.24 41.0256 155.598 39.1847 156.314 37.6847C157.039 36.1761 158.015 35.0384 159.242 34.2713C160.469 33.4957 161.837 33.108 163.346 33.108C164.496 33.108 165.442 33.304 166.184 33.696C166.925 34.0795 167.513 34.544 167.948 35.0895C168.382 35.6264 168.719 36.1335 168.958 36.6108H169.15V26.8182H173.79V53H169.239V49.9062H168.958C168.719 50.3835 168.374 50.8906 167.922 51.4276C167.471 51.956 166.874 52.4077 166.132 52.7827C165.391 53.1577 164.458 53.3452 163.333 53.3452ZM164.624 49.5483C165.604 49.5483 166.439 49.2841 167.13 48.7557C167.82 48.2187 168.344 47.473 168.702 46.5185C169.06 45.5639 169.239 44.4517 169.239 43.1818C169.239 41.9119 169.06 40.8082 168.702 39.8707C168.353 38.9332 167.833 38.2045 167.142 37.6847C166.461 37.1648 165.621 36.9048 164.624 36.9048C163.593 36.9048 162.732 37.1733 162.042 37.7102C161.351 38.2472 160.831 38.9886 160.482 39.9347C160.132 40.8807 159.958 41.9631 159.958 43.1818C159.958 44.4091 160.132 45.5043 160.482 46.4673C160.84 47.4219 161.364 48.1761 162.054 48.7301C162.753 49.2756 163.61 49.5483 164.624 49.5483ZM183.349 26.8182V53H178.722V26.8182H183.349ZM190.985 60.3636C190.354 60.3636 189.77 60.3125 189.233 60.2102C188.705 60.1165 188.283 60.0057 187.968 59.8778L189.042 56.2727C189.715 56.4688 190.316 56.5625 190.844 56.554C191.373 56.5455 191.837 56.3793 192.238 56.0554C192.647 55.7401 192.992 55.2116 193.273 54.4702L193.669 53.4091L186.549 33.3636H191.458L195.983 48.1932H196.188L200.726 33.3636H205.648L197.786 55.3778C197.419 56.4176 196.934 57.3082 196.328 58.0497C195.723 58.7997 194.982 59.3707 194.104 59.7628C193.235 60.1634 192.195 60.3636 190.985 60.3636Z" fill="black"/>
</svg>
